# 3ds Max Wavefront OBJ Exporter v0.97b - (c)2007 guruware
# File Created: 19.07.2013 14:56:41

mtllib Pinball_Flipper.mtl

#
# object Flipper
#

v  -0.1733 -0.0574 -0.0192
v  -0.1733 -0.0760 -0.0192
v  0.1839 -0.0760 0.0749
v  0.1839 -0.0574 0.0749
v  0.1925 -0.0760 0.0722
v  0.1925 -0.0574 0.0722
v  0.1899 -0.0574 0.0502
v  0.1899 -0.0760 0.0502
v  -0.1515 -0.0760 -0.0861
v  -0.1515 -0.0574 -0.0861
v  -0.1678 -0.0760 -0.0760
v  -0.1678 -0.0574 -0.0760
v  -0.1663 0.0778 -0.0754
v  -0.1781 0.0778 -0.0589
v  0.1958 0.0778 0.0656
v  0.1943 0.0778 0.0567
v  -0.1720 -0.0778 -0.0207
v  -0.1798 -0.0778 -0.0380
v  0.1900 -0.0778 0.0715
v  0.1839 -0.0778 0.0730
v  0.1964 0.0764 0.0575
v  0.1972 0.0764 0.0661
v  0.1972 0.0566 0.0661
v  0.1964 0.0566 0.0575
v  -0.1733 0.0764 -0.0192
v  -0.1818 0.0764 -0.0386
v  -0.1818 0.0566 -0.0386
v  -0.1733 0.0566 -0.0192
v  0.1906 0.0778 0.0716
v  -0.1802 0.0778 -0.0381
v  0.1888 -0.0778 0.0517
v  0.1937 -0.0778 0.0565
v  -0.1659 -0.0778 -0.0753
v  -0.1514 -0.0778 -0.0841
v  0.1972 -0.0760 0.0661
v  0.1972 -0.0574 0.0661
v  0.1954 -0.0778 0.0655
v  -0.1777 -0.0778 -0.0588
v  -0.1794 0.0764 -0.0593
v  -0.1794 0.0566 -0.0593
v  0.1839 0.0778 0.0734
v  -0.1723 0.0778 -0.0204
v  -0.1794 -0.0760 -0.0593
v  -0.1794 -0.0574 -0.0593
v  -0.1514 0.0778 -0.0846
v  0.1890 0.0778 0.0513
v  0.1899 0.0764 0.0502
v  0.1899 0.0566 0.0502
v  0.1839 0.0566 0.0749
v  0.1839 0.0764 0.0749
v  0.1925 0.0566 0.0722
v  0.1925 0.0764 0.0722
v  -0.1515 0.0566 -0.0861
v  -0.1515 0.0764 -0.0861
v  -0.1678 0.0566 -0.0760
v  -0.1678 0.0764 -0.0760
v  0.1964 -0.0760 0.0575
v  0.1964 -0.0574 0.0575
v  -0.1836 -0.0510 -0.0071
v  -0.1836 0.0501 -0.0071
v  -0.1964 0.0501 -0.0364
v  -0.1964 -0.0510 -0.0364
v  -0.1818 -0.0760 -0.0386
v  -0.1818 -0.0574 -0.0386
v  0.2009 -0.0510 0.0466
v  0.2009 0.0501 0.0466
v  0.2071 0.0501 0.0555
v  0.2071 -0.0510 0.0555
v  0.1901 -0.0510 0.0841
v  0.1901 0.0501 0.0841
v  0.2000 -0.0510 0.0795
v  0.2000 0.0501 0.0795
v  -0.1530 -0.0510 -0.1021
v  -0.1530 0.0501 -0.1021
v  -0.1779 -0.0510 -0.0866
v  -0.1779 0.0501 -0.0866
v  0.2071 -0.0510 0.0688
v  0.2071 0.0501 0.0688
v  -0.1932 -0.0510 -0.0646
v  -0.1932 0.0501 -0.0646
v  -0.1789 0.0566 -0.0126
v  -0.1898 0.0566 -0.0374
v  -0.1898 -0.0574 -0.0373
v  -0.1790 -0.0574 -0.0126
v  0.1929 0.0566 0.0492
v  0.2003 0.0566 0.0568
v  0.2004 -0.0574 0.0568
v  0.1930 -0.0574 0.0492
v  0.1856 -0.0574 0.0775
v  0.1856 0.0566 0.0774
v  0.1952 -0.0574 0.0748
v  0.1952 0.0566 0.0748
v  -0.1523 -0.0574 -0.0949
v  -0.1523 0.0566 -0.0948
v  -0.1733 -0.0574 -0.0818
v  -0.1733 0.0566 -0.0818
v  0.2006 -0.0574 0.0670
v  0.2005 0.0566 0.0670
v  -0.1870 -0.0574 -0.0622
v  -0.1870 0.0566 -0.0622
# 100 vertices

vn -0.6503 0.0000 0.7597
vn -0.5940 -0.4109 0.6916
vn 0.0187 -0.3767 0.9261
vn 0.0224 0.0000 0.9997
vn 0.5069 -0.3958 0.7658
vn 0.5716 0.0000 0.8206
vn 0.5729 0.0000 -0.8196
vn 0.5284 -0.3758 -0.7613
vn -0.0824 -0.4146 -0.9063
vn -0.0889 0.0000 -0.9960
vn -0.6315 -0.3887 -0.6709
vn -0.6885 0.0000 -0.7252
vn -0.2565 0.9267 -0.2748
vn -0.3355 0.9334 -0.1272
vn 0.3099 0.9467 0.0882
vn 0.3282 0.9298 -0.1670
vn -0.3104 -0.8799 0.3597
vn -0.3648 -0.9291 0.0604
vn 0.1934 -0.9293 0.3145
vn 0.0088 -0.8573 0.5147
vn 0.8321 0.3969 -0.3874
vn 0.8609 0.4442 0.2481
vn 0.9603 0.0000 0.2789
vn 0.9168 0.0000 -0.3994
vn -0.5946 0.4102 0.6916
vn -0.9075 0.3951 0.1424
vn -0.9888 0.0000 0.1495
vn 0.1950 0.9316 0.3068
vn -0.3654 0.9289 0.0603
vn 0.2920 -0.8568 -0.4249
vn 0.3239 -0.9317 -0.1645
vn -0.2565 -0.9264 -0.2758
vn -0.0437 -0.8821 -0.4691
vn 0.8606 -0.4437 0.2501
vn 0.3094 -0.9467 0.0900
vn -0.3354 -0.9334 -0.1273
vn -0.8544 0.4070 -0.3231
vn -0.9355 0.0000 -0.3532
vn 0.0100 0.8618 0.5071
vn -0.3113 0.8795 0.3599
vn -0.8543 -0.4069 -0.3232
vn -0.0436 0.8826 -0.4681
vn 0.2981 0.8527 -0.4291
vn 0.5313 0.3700 -0.7621
vn 0.0197 0.3828 0.9236
vn 0.5102 0.4020 0.7603
vn -0.0823 0.4153 -0.9059
vn -0.6318 0.3894 -0.6702
vn 0.8301 -0.4024 -0.3860
vn -0.5841 -0.4087 0.7013
vn -0.5841 0.4089 0.7011
vn -0.9086 0.3944 0.1375
vn -0.9086 -0.3945 0.1374
vn -0.9072 -0.3958 0.1426
vn 0.5648 -0.3911 -0.7267
vn 0.5638 0.3891 -0.7285
vn 0.8661 0.4074 -0.2897
vn 0.8661 -0.4092 -0.2871
vn 0.0680 -0.3957 0.9159
vn 0.0695 0.3985 0.9145
vn 0.5846 -0.4045 0.7033
vn 0.5858 0.4073 0.7007
vn -0.0687 -0.4121 -0.9086
vn -0.0686 0.4119 -0.9087
vn -0.6341 -0.3897 -0.6679
vn -0.6340 0.3897 -0.6679
vn 0.8777 -0.4008 0.2628
vn 0.8777 0.4009 0.2624
vn -0.8603 -0.3930 -0.3248
vn -0.8603 0.3930 -0.3248
vn -0.2271 0.9340 0.2759
vn 0.0000 1.0000 -0.0000
vn -0.3670 0.9286 0.0555
vn -0.3669 -0.9286 0.0555
vn 0.0000 -1.0000 -0.0000
vn -0.2272 -0.9339 0.2761
vn 0.2222 0.9256 -0.3063
vn 0.3348 0.9343 -0.1226
vn 0.3343 -0.9348 -0.1199
vn 0.2224 -0.9266 -0.3034
vn 0.0154 -0.9280 0.3722
vn 0.0166 0.9292 0.3691
vn 0.2220 -0.9332 0.2825
vn 0.2224 0.9341 0.2792
vn -0.0245 -0.9351 -0.3537
vn -0.0244 0.9350 -0.3539
vn -0.2587 -0.9267 -0.2726
vn -0.2586 0.9267 -0.2725
vn 0.3491 -0.9312 0.1048
vn 0.3491 0.9312 0.1044
vn -0.3485 -0.9280 -0.1316
vn -0.3485 0.9280 -0.1316
# 92 vertex normals

vt 0.6476 0.7094 0.0000
vt 0.6516 0.7432 0.0000
vt 0.0159 0.8186 0.0000
vt 0.0161 0.7843 0.0000
vt 0.9388 0.8646 0.0000
vt 0.9358 0.9653 0.0000
vt 0.8870 0.9638 0.0000
vt 0.8903 0.8596 0.0000
vt 0.0212 0.8949 0.0000
vt 0.0219 0.8623 0.0000
vt 0.6590 0.8650 0.0000
vt 0.6600 0.8986 0.0000
vt 0.9580 0.0144 0.0000
vt 0.9940 0.0152 0.0000
vt 0.9931 0.0524 0.0000
vt 0.9562 0.0514 0.0000
vt 0.6678 0.5526 0.0000
vt 0.6802 0.5853 0.0000
vt 0.0025 0.6290 0.0000
vt 0.0089 0.6149 0.0000
vt 0.6504 0.7464 0.0000
vt 0.6739 0.7693 0.0000
vt 0.0080 0.8280 0.0000
vt 0.0170 0.8215 0.0000
vt 0.7967 0.2172 0.0000
vt 0.8445 0.2178 0.0000
vt 0.8430 0.3321 0.0000
vt 0.7921 0.3293 0.0000
vt 0.6892 0.1760 0.0000
vt 0.6900 0.1350 0.0000
vt 0.7295 0.1358 0.0000
vt 0.7276 0.1768 0.0000
vt 0.0086 0.6414 0.0000
vt 0.6747 0.6209 0.0000
vt 0.0226 0.8591 0.0000
vt 0.0116 0.8544 0.0000
vt 0.6751 0.8384 0.0000
vt 0.6574 0.8619 0.0000
vt 0.8445 0.9638 0.0000
vt 0.8442 0.8573 0.0000
vt 0.0032 0.8411 0.0000
vt 0.6837 0.8042 0.0000
vt 0.6896 0.0930 0.0000
vt 0.7299 0.0928 0.0000
vt 0.0190 0.6473 0.0000
vt 0.6537 0.6470 0.0000
vt 0.9930 0.0930 0.0000
vt 0.9552 0.0928 0.0000
vt 0.6470 0.5308 0.0000
vt 0.0200 0.6082 0.0000
vt 0.7426 0.2151 0.0000
vt 0.7383 0.3236 0.0000
vt 0.6549 0.6494 0.0000
vt 0.6541 0.6853 0.0000
vt 0.0185 0.6853 0.0000
vt 0.0183 0.6497 0.0000
vt 0.9368 0.2179 0.0000
vt 0.9381 0.3262 0.0000
vt 0.8893 0.3304 0.0000
vt 0.8875 0.2184 0.0000
vt 0.0192 0.6059 0.0000
vt 0.0166 0.5703 0.0000
vt 0.6413 0.4918 0.0000
vt 0.6480 0.5282 0.0000
vt 0.6887 0.0146 0.0000
vt 0.7275 0.0137 0.0000
vt 0.7291 0.0513 0.0000
vt 0.6895 0.0522 0.0000
vt 0.7973 0.9639 0.0000
vt 0.7936 0.8598 0.0000
vt 0.9266 0.1907 0.0000
vt 0.7581 0.1904 0.0000
vt 0.7597 0.1375 0.0000
vt 0.9252 0.1379 0.0000
vt 0.9927 0.1351 0.0000
vt 0.9554 0.1358 0.0000
vt 0.7468 0.8039 0.0000
vt 0.7484 0.3851 0.0000
vt 0.7922 0.3898 0.0000
vt 0.7908 0.8000 0.0000
vt 0.6646 0.0311 0.0000
vt 0.6646 0.2045 0.0000
vt 0.0000 0.2045 0.0000
vt 0.0000 0.0311 0.0000
vt 0.9378 0.3859 0.0000
vt 0.9360 0.8047 0.0000
vt 0.8916 0.8004 0.0000
vt 0.8932 0.3895 0.0000
vt 0.7048 0.2712 0.0000
vt 0.7048 0.4563 0.0000
vt 0.0000 0.4563 0.0000
vt 0.0000 0.2712 0.0000
vt 0.7582 0.0000 0.0000
vt 0.9274 0.0004 0.0000
vt 0.9260 0.0495 0.0000
vt 0.7594 0.0490 0.0000
vt 0.8424 0.7991 0.0000
vt 0.8438 0.3907 0.0000
vt 0.9251 0.0926 0.0000
vt 0.7601 0.0922 0.0000
vt 0.9936 0.1764 0.0000
vt 0.9573 0.1773 0.0000
vt 0.7440 0.9656 0.0000
vt 0.7408 0.8653 0.0000
vt 0.7416 0.1844 0.0000
vt 0.7444 0.1366 0.0000
vt 0.9404 0.1369 0.0000
vt 0.9430 0.1848 0.0000
vt 0.7446 0.3371 0.0000
vt 0.7927 0.3502 0.0000
vt 0.7936 0.8394 0.0000
vt 0.7453 0.8510 0.0000
vt 0.6592 0.2218 0.0000
vt 0.6524 0.2341 0.0000
vt 0.0123 0.2236 0.0000
vt 0.0083 0.2203 0.0000
vt 0.0111 0.0147 0.0000
vt 0.0150 0.0112 0.0000
vt 0.6541 0.0000 0.0000
vt 0.6608 0.0130 0.0000
vt 0.9350 0.8513 0.0000
vt 0.8902 0.8396 0.0000
vt 0.8897 0.3499 0.0000
vt 0.9354 0.3396 0.0000
vt 0.6932 0.4676 0.0000
vt 0.6887 0.4675 0.0000
vt 0.0145 0.4673 0.0000
vt 0.0069 0.4676 0.0000
vt 0.0070 0.2585 0.0000
vt 0.0145 0.2582 0.0000
vt 0.6887 0.2585 0.0000
vt 0.6932 0.2586 0.0000
vt 0.9439 0.0065 0.0000
vt 0.9414 0.0504 0.0000
vt 0.7439 0.0501 0.0000
vt 0.7417 0.0060 0.0000
vt 0.8437 0.8382 0.0000
vt 0.8429 0.3512 0.0000
vt 0.9402 0.0927 0.0000
vt 0.7449 0.0925 0.0000
vt 0.6775 0.6208 0.0000
vt 0.0052 0.6415 0.0000
vt 0.0050 0.6153 0.0000
vt 0.6706 0.5523 0.0000
vt 0.0000 0.6292 0.0000
vt 0.6827 0.5851 0.0000
vt 0.6776 0.7691 0.0000
vt 0.0037 0.8284 0.0000
vt 0.0067 0.8546 0.0000
vt 0.6788 0.8383 0.0000
vt 0.0000 0.8413 0.0000
vt 0.6870 0.8041 0.0000
# 152 texture coords

g Flipper
usemtl Material__25
s off
f 1/1/1 2/2/2 3/3/3 4/4/4 
f 4/5/4 3/6/3 5/7/5 6/8/6 
f 7/9/7 8/10/8 9/11/9 10/12/10 
f 10/13/10 9/14/9 11/15/11 12/16/12 
f 13/17/13 14/18/14 15/19/15 16/20/16 
f 17/21/17 18/22/18 19/23/19 20/24/20 
f 21/25/21 22/26/22 23/27/23 24/28/24 
f 25/29/25 26/30/26 27/31/27 28/32/1 
f 29/33/28 15/19/15 14/18/14 30/34/29 
f 31/35/30 32/36/31 33/37/32 34/38/33 
f 35/39/34 36/40/23 6/8/6 5/7/5 
f 37/41/35 19/23/19 18/22/18 38/42/36 
f 39/43/37 40/44/38 27/31/27 26/30/26 
f 41/45/39 29/33/28 30/34/29 42/46/40 
f 43/47/41 44/48/38 12/16/12 11/15/11 
f 45/49/42 13/17/13 16/20/16 46/50/43 
f 47/51/44 21/25/21 24/28/24 48/52/7 
f 38/42/36 33/37/32 32/36/31 37/41/35 
f 25/53/25 28/54/1 49/55/4 50/56/45 
f 50/57/45 49/58/4 51/59/6 52/60/46 
f 47/61/44 48/62/7 53/63/10 54/64/47 
f 54/65/47 53/66/10 55/67/12 56/68/48 
f 57/69/49 58/70/24 36/40/23 35/39/34 
f 59/71/50 60/72/51 61/73/52 62/74/53 
f 52/60/46 51/59/6 23/27/23 22/26/22 
f 63/75/54 64/76/27 44/48/38 43/47/41 
f 56/68/48 55/67/12 40/44/38 39/43/37 
f 65/77/55 66/78/56 67/79/57 68/80/58 
f 60/81/51 59/82/50 69/83/59 70/84/60 
f 70/85/60 69/86/59 71/87/61 72/88/62 
f 66/89/56 65/90/55 73/91/63 74/92/64 
f 74/93/64 73/94/63 75/95/65 76/96/66 
f 72/88/62 71/87/61 77/97/67 78/98/68 
f 76/96/66 75/95/65 79/99/69 80/100/70 
f 78/98/68 77/97/67 68/80/58 67/79/57 
f 2/101/2 1/102/1 64/76/27 63/75/54 
f 80/100/70 79/99/69 62/74/53 61/73/52 
f 8/103/8 7/104/7 58/70/24 57/69/49 
f 81/105/71 28/32/72 27/31/72 82/106/73 
f 83/107/74 64/76/75 1/102/75 84/108/76 
f 85/109/77 48/52/72 24/28/72 86/110/78 
f 87/111/79 58/70/75 7/104/75 88/112/80 
f 84/113/76 1/114/75 4/115/75 89/116/81 
f 90/117/82 49/118/72 28/119/72 81/120/71 
f 89/121/81 4/5/75 6/8/75 91/122/83 
f 92/123/84 51/59/72 49/58/72 90/124/82 
f 88/125/80 7/126/75 10/127/75 93/128/85 
f 94/129/86 53/130/72 48/131/72 85/132/77 
f 93/133/85 10/13/75 12/16/75 95/134/87 
f 96/135/88 55/67/72 53/66/72 94/136/86 
f 91/122/83 6/8/75 36/40/75 97/137/89 
f 98/138/90 23/27/72 51/59/72 92/123/84 
f 95/134/87 12/16/75 44/48/75 99/139/91 
f 100/140/92 40/44/72 55/67/72 96/135/88 
f 97/137/89 36/40/75 58/70/75 87/111/79 
f 86/110/78 24/28/72 23/27/72 98/138/90 
f 99/139/91 44/48/75 64/76/75 83/107/74 
f 82/106/73 27/31/72 40/44/72 100/140/92 
f 70/84/60 90/117/82 81/120/71 60/81/51 
f 82/106/73 61/73/52 60/72/51 81/105/71 
f 72/88/62 92/123/84 90/124/82 70/85/60 
f 78/98/68 98/138/90 92/123/84 72/88/62 
f 85/132/77 66/89/56 74/92/64 94/129/86 
f 86/110/78 67/79/57 66/78/56 85/109/77 
f 94/136/86 74/93/64 76/96/66 96/135/88 
f 80/100/70 100/140/92 96/135/88 76/96/66 
f 98/138/90 78/98/68 67/79/57 86/110/78 
f 100/140/92 80/100/70 61/73/52 82/106/73 
f 59/82/50 84/113/76 89/116/81 69/83/59 
f 84/108/76 59/71/50 62/74/53 83/107/74 
f 69/86/59 89/121/81 91/122/83 71/87/61 
f 71/87/61 91/122/83 97/137/89 77/97/67 
f 93/128/85 73/91/63 65/90/55 88/125/80 
f 88/112/80 65/77/55 68/80/58 87/111/79 
f 95/134/87 75/95/65 73/94/63 93/133/85 
f 75/95/65 95/134/87 99/139/91 79/99/69 
f 87/111/79 68/80/58 77/97/67 97/137/89 
f 83/107/74 62/74/53 79/99/69 99/139/91 
f 50/56/45 41/45/39 42/46/40 25/53/25 
f 25/53/25 42/46/40 30/34/29 26/141/26 
f 52/142/46 29/33/28 41/45/39 50/56/45 
f 46/50/43 47/61/44 54/64/47 45/49/42 
f 16/20/16 21/143/21 47/61/44 46/50/43 
f 56/144/48 13/17/13 45/49/42 54/64/47 
f 29/33/28 52/142/46 22/145/22 15/19/15 
f 21/143/21 16/20/16 15/19/15 22/145/22 
f 26/141/26 30/34/29 14/18/14 39/146/37 
f 39/146/37 14/18/14 13/17/13 56/144/48 
f 20/24/20 3/3/3 2/2/2 17/21/17 
f 17/21/17 2/2/2 63/147/54 18/22/18 
f 19/23/19 5/148/5 3/3/3 20/24/20 
f 8/10/8 31/35/30 34/38/33 9/11/9 
f 57/149/49 32/36/31 31/35/30 8/10/8 
f 9/11/9 34/38/33 33/37/32 11/150/11 
f 37/41/35 35/151/34 5/148/5 19/23/19 
f 32/36/31 57/149/49 35/151/34 37/41/35 
f 18/22/18 63/147/54 43/152/41 38/42/36 
f 38/42/36 43/152/41 11/150/11 33/37/32 
# 98 polygons

